<mxfile host="app.diagrams.net" modified="2022-04-10T00:16:23.962Z" agent="5.0 (Macintosh; Intel Mac OS X 10_15_7) AppleWebKit/537.36 (KHTML, like Gecko) Chrome/100.0.4896.75 Safari/537.36" etag="dXe3jqzkN_CqCPL-Zppi" version="17.4.0" type="github">
  <diagram id="3228e29e-7158-1315-38df-8450db1d8a1d" name="Page-1">
    <mxGraphModel dx="1042" dy="1090" grid="0" gridSize="10" guides="1" tooltips="1" connect="1" arrows="1" fold="1" page="1" pageScale="1" pageWidth="950" pageHeight="470" background="#EFF1F3" math="0" shadow="0">
      <root>
        <mxCell id="0" />
        <mxCell id="1" parent="0" />
        <mxCell id="OGBjxk_xHfaE1EplLFuK-23" value="&lt;font color=&quot;#535e80&quot;&gt;数据id=1&lt;/font&gt;" style="rounded=0;whiteSpace=wrap;html=1;fillColor=#CCCCCC;gradientColor=none;fontSize=20;" parent="1" vertex="1">
          <mxGeometry x="59" y="573" width="380" height="60" as="geometry" />
        </mxCell>
        <mxCell id="OGBjxk_xHfaE1EplLFuK-29" value="&lt;font color=&quot;#ffffff&quot; style=&quot;font-size: 24px&quot;&gt;数据表&lt;/font&gt;" style="rounded=0;whiteSpace=wrap;html=1;fillColor=#535E80;gradientColor=none;fontSize=24;" parent="1" vertex="1">
          <mxGeometry x="59" y="513" width="380" height="60" as="geometry" />
        </mxCell>
        <mxCell id="E5Fr-yn8FIVRKY9gDkfl-10" value="&lt;font style=&quot;font-size: 20px&quot;&gt;数据id=2&lt;/font&gt;" style="rounded=0;whiteSpace=wrap;html=1;fillColor=#F8F8F8;gradientColor=none;fontSize=20;" parent="1" vertex="1">
          <mxGeometry x="59" y="633" width="380" height="60" as="geometry" />
        </mxCell>
        <mxCell id="E5Fr-yn8FIVRKY9gDkfl-12" value="数据id=3" style="rounded=0;whiteSpace=wrap;html=1;fillColor=#CCCCCC;gradientColor=none;fontSize=20;" parent="1" vertex="1">
          <mxGeometry x="59" y="693" width="380" height="60" as="geometry" />
        </mxCell>
        <mxCell id="E5Fr-yn8FIVRKY9gDkfl-14" value="&lt;span style=&quot;font-size: 20px&quot;&gt;......&lt;/span&gt;" style="rounded=0;whiteSpace=wrap;html=1;fillColor=#F8F8F8;gradientColor=none;fontSize=20;" parent="1" vertex="1">
          <mxGeometry x="59" y="753" width="380" height="60" as="geometry" />
        </mxCell>
        <mxCell id="E5Fr-yn8FIVRKY9gDkfl-16" value="&lt;font color=&quot;#42818a&quot;&gt;数据id=100&lt;/font&gt;" style="rounded=0;whiteSpace=wrap;html=1;fillColor=#CCCCCC;gradientColor=none;fontSize=20;" parent="1" vertex="1">
          <mxGeometry x="59" y="813" width="380" height="60" as="geometry" />
        </mxCell>
        <mxCell id="4CT5kPOwTRjGlRf_9TSL-5" value="" style="sketch=0;pointerEvents=1;shadow=0;dashed=0;html=1;strokeColor=none;fillColor=#535E80;labelPosition=center;verticalLabelPosition=bottom;verticalAlign=top;outlineConnect=0;align=center;shape=mxgraph.office.concepts.application_generic;fontSize=20;" vertex="1" parent="1">
          <mxGeometry x="682" y="581.5" width="157" height="115.5" as="geometry" />
        </mxCell>
        <mxCell id="4CT5kPOwTRjGlRf_9TSL-8" value="" style="sketch=0;pointerEvents=1;shadow=0;dashed=0;html=1;strokeColor=none;labelPosition=center;verticalLabelPosition=bottom;verticalAlign=top;outlineConnect=0;align=center;shape=mxgraph.office.security.lock_protected;fillColor=#535E80;fontSize=20;" vertex="1" parent="1">
          <mxGeometry x="506" y="613.25" width="38" height="52" as="geometry" />
        </mxCell>
        <mxCell id="4CT5kPOwTRjGlRf_9TSL-9" value="" style="shape=curlyBracket;whiteSpace=wrap;html=1;rounded=1;flipH=1;fontSize=20;fillColor=#535E80;strokeWidth=5;fontColor=#535E80;strokeColor=#535E80;" vertex="1" parent="1">
          <mxGeometry x="463" y="573" width="20" height="300" as="geometry" />
        </mxCell>
        <mxCell id="4CT5kPOwTRjGlRf_9TSL-10" value="" style="shape=flexArrow;endArrow=classic;html=1;rounded=0;fontSize=20;strokeColor=none;fillColor=#535E80;" edge="1" parent="1">
          <mxGeometry width="50" height="50" relative="1" as="geometry">
            <mxPoint x="648" y="644.44" as="sourcePoint" />
            <mxPoint x="581" y="644.44" as="targetPoint" />
          </mxGeometry>
        </mxCell>
        <mxCell id="4CT5kPOwTRjGlRf_9TSL-11" value="&lt;font style=&quot;font-size: 40px&quot; color=&quot;#535e80&quot;&gt;&lt;b&gt;func&lt;/b&gt;&lt;/font&gt;" style="text;html=1;strokeColor=none;fillColor=none;align=center;verticalAlign=middle;whiteSpace=wrap;rounded=0;fontSize=20;" vertex="1" parent="1">
          <mxGeometry x="731" y="630" width="60" height="30" as="geometry" />
        </mxCell>
        <mxCell id="4CT5kPOwTRjGlRf_9TSL-12" value="" style="sketch=0;pointerEvents=1;shadow=0;dashed=0;html=1;strokeColor=none;fillColor=#4A919B;labelPosition=center;verticalLabelPosition=bottom;verticalAlign=top;outlineConnect=0;align=center;shape=mxgraph.office.concepts.application_generic;fontSize=20;" vertex="1" parent="1">
          <mxGeometry x="682" y="746" width="157" height="115.5" as="geometry" />
        </mxCell>
        <mxCell id="4CT5kPOwTRjGlRf_9TSL-13" value="" style="shape=flexArrow;endArrow=classic;html=1;rounded=0;fontSize=20;strokeColor=none;fillColor=#4A919B;" edge="1" parent="1">
          <mxGeometry width="50" height="50" relative="1" as="geometry">
            <mxPoint x="648" y="808.94" as="sourcePoint" />
            <mxPoint x="581" y="808.94" as="targetPoint" />
          </mxGeometry>
        </mxCell>
        <mxCell id="4CT5kPOwTRjGlRf_9TSL-14" value="&lt;font style=&quot;font-size: 40px&quot;&gt;&lt;b&gt;func&lt;/b&gt;&lt;/font&gt;" style="text;html=1;strokeColor=none;fillColor=none;align=center;verticalAlign=middle;whiteSpace=wrap;rounded=0;fontSize=20;fontColor=#4A919B;" vertex="1" parent="1">
          <mxGeometry x="731" y="794.5" width="60" height="30" as="geometry" />
        </mxCell>
        <mxCell id="4CT5kPOwTRjGlRf_9TSL-15" value="&lt;font style=&quot;font-size: 20px&quot;&gt;1.写id=1，同时加上表锁&lt;/font&gt;" style="text;html=1;strokeColor=none;fillColor=none;align=center;verticalAlign=middle;whiteSpace=wrap;rounded=0;fontSize=40;fontColor=#535E80;" vertex="1" parent="1">
          <mxGeometry x="630" y="678" width="261" height="57" as="geometry" />
        </mxCell>
        <mxCell id="4CT5kPOwTRjGlRf_9TSL-16" value="&lt;font style=&quot;font-size: 20px&quot;&gt;2.写id=100，阻塞等待&lt;/font&gt;" style="text;html=1;strokeColor=none;fillColor=none;align=center;verticalAlign=middle;whiteSpace=wrap;rounded=0;fontSize=40;fontColor=#4A919B;" vertex="1" parent="1">
          <mxGeometry x="651" y="859" width="220" height="39" as="geometry" />
        </mxCell>
        <mxCell id="4CT5kPOwTRjGlRf_9TSL-17" value="锁表" style="text;html=1;strokeColor=none;fillColor=none;align=center;verticalAlign=middle;whiteSpace=wrap;rounded=0;fontSize=20;fontColor=#535E80;" vertex="1" parent="1">
          <mxGeometry x="495" y="672" width="60" height="30" as="geometry" />
        </mxCell>
        <mxCell id="4CT5kPOwTRjGlRf_9TSL-18" value="阻塞" style="text;html=1;strokeColor=none;fillColor=none;align=center;verticalAlign=middle;whiteSpace=wrap;rounded=0;fontSize=20;fontColor=#4A919B;" vertex="1" parent="1">
          <mxGeometry x="495" y="836" width="60" height="30" as="geometry" />
        </mxCell>
        <mxCell id="4CT5kPOwTRjGlRf_9TSL-22" value="····" style="rhombus;whiteSpace=wrap;html=1;fontSize=20;fontColor=#FFFFFF;strokeWidth=3;fillColor=#4A919B;strokeColor=none;" vertex="1" parent="1">
          <mxGeometry x="501" y="783.5" width="48" height="48" as="geometry" />
        </mxCell>
      </root>
    </mxGraphModel>
  </diagram>
</mxfile>
